<svg xmlns="http://www.w3.org/2000/svg" width="64.26" height="64.26" viewBox="0 0 64.26 64.26"><g id="Layer_2" data-name="Layer 2"><g id="Layer_1-2" data-name="Layer 1"><g id="ns_ext_compatibility"><rect width="64.26" height="64.26" style="fill:#5167b7"/><path d="M47.33,40.16l5-5-5-5,.7-.69a3.67,3.67,0,0,0,.53-4.63,3.58,3.58,0,0,0-4.1-1.38,3.54,3.54,0,0,0-1.41.91l-.76.76-5-5-1.47,1.47V24a5.91,5.91,0,0,1,0,11.5v7.2H31.53l-.86.86,6.64,6.64,5-5,.64.64a3.56,3.56,0,1,0,5.09-5Z" style="fill:#fff"/><path d="M33.76,40.6V33.32h1a3.64,3.64,0,1,0,0-7.27h-1V18.78H26.49v-1a3.6,3.6,0,0,0-2.43-3.47,3.64,3.64,0,0,0-4.84,3.37v2.17H12v6.23h1A3.64,3.64,0,0,1,16.51,29a1.19,1.19,0,0,1,.23.72,1.21,1.21,0,0,1-.23.72A3.63,3.63,0,0,1,13,33.32H12V40.6h7.27v-1a3.64,3.64,0,0,1,7.27-.1V40.6Z" style="fill:#fff"/></g></g></g></svg>