<svg xmlns="http://www.w3.org/2000/svg" viewBox="0 0 128 128"><title>Nitsan Black and white</title><g id="Layer_2" data-name="Layer 2"><g id="Layer_1-2" data-name="Layer 1"><rect width="128" height="128"/><path fill="#fff" d="M68.38,32.13c13.09,9.73,11.1,20.45,7.72,31.2-2.87-5.59-6.55-7.91-14.42-15.73C46.82,32.84,60.39,16.89,64,13c-8,5.77-13.13,12.45-15.39,19.13H32.77v3.44h0v59h26.8c-1-.77-2.8-2.33-2.82-2.33-5.27-4.88-7.21-9.93-7.4-15.08h0c0-.26,0-.52,0-.79v-.54a46,46,0,0,1,2.51-12.44h0c2.87,5.57,6.55,7.9,14.41,15.7,13,12.9,4.26,26.71-.54,32.58-.6.71-1.2,1.38-1.76,2h0c8-5.77,13.14-12.45,15.4-19.13H95.18V32.13Z"/></g></g></svg>
