<?xml version="1.0" encoding="utf-8"?>
<!-- Generator: Adobe Illustrator 16.0.0, SVG Export Plug-In . SVG Version: 6.00 Build 0)  -->
<!DOCTYPE svg PUBLIC "-//W3C//DTD SVG 1.1//EN" "http://www.w3.org/Graphics/SVG/1.1/DTD/svg11.dtd">
<svg version="1.1" id="Layer_1" xmlns="http://www.w3.org/2000/svg" xmlns:xlink="http://www.w3.org/1999/xlink" x="0px" y="0px"
	 width="32px" height="32px" viewBox="0 0 32 32" enable-background="new 0 0 32 32" xml:space="preserve">
<g>
	<path fill-rule="evenodd" clip-rule="evenodd" fill="#020202" d="M27.365,31.538c-6.902,0-13.806,0-20.71,0
		c-0.025-0.109-0.128-0.097-0.202-0.126c-0.311-0.113-0.578-0.285-0.799-0.529c-0.396-0.432-0.508-0.945-0.507-1.509
		c0.004-9.071,0.003-18.141,0.003-27.211c0-0.109-0.001-0.218,0.008-0.327c0.067-0.834,0.507-1.4,1.295-1.713
		C6.527,0.093,6.631,0.109,6.655,0c5.581,0,11.162,0,16.741,0c-0.004,0.1,0.089,0.137,0.141,0.194
		c0.48,0.513,0.964,1.024,1.444,1.536c1.21,1.281,2.41,2.569,3.628,3.84c0.262,0.273,0.373,0.543,0.373,0.927
		c-0.013,7.521-0.009,15.041-0.009,22.563c0,0.209,0,0.419-0.006,0.63c-0.022,0.568-0.279,1.021-0.709,1.398
		C27.997,31.315,27.659,31.382,27.365,31.538z M6.806,15.77c0,4.542,0,9.083,0,13.626c0,0.446,0.069,0.516,0.517,0.516
		c6.5,0,12.998,0,19.498,0c0.418,0,0.497-0.077,0.497-0.482c0-7.349,0-14.694,0.004-22.041c0-0.195-0.044-0.254-0.25-0.252
		c-1.324,0.009-2.646-0.01-3.969,0.011c-0.509,0.01-0.964-0.409-0.952-0.927c0.026-1.436,0.005-2.871,0.014-4.307
		c0.002-0.221-0.044-0.293-0.288-0.293c-4.844,0.008-9.684,0.006-14.528,0.006c-0.479,0-0.542,0.064-0.542,0.542
		C6.806,6.702,6.806,11.234,6.806,15.77z M26.296,5.523c-0.843-0.893-1.633-1.733-2.423-2.572c-0.057,0.83-0.055,1.624-0.057,2.419
		c0,0.101,0.027,0.155,0.143,0.154C24.712,5.522,25.462,5.523,26.296,5.523z"/>
	<path fill-rule="evenodd" clip-rule="evenodd" fill="#060606" d="M16.752,12.088c-2.283,0-4.566,0.002-6.85-0.001
		c-0.178,0-0.354,0.008-0.516-0.106c-0.218-0.158-0.301-0.363-0.25-0.614c0.046-0.238,0.209-0.383,0.439-0.446
		c0.114-0.031,0.238-0.039,0.356-0.039c4.584-0.001,9.168-0.001,13.751,0c0.507,0,0.79,0.251,0.757,0.673
		c-0.021,0.262-0.211,0.473-0.479,0.514c-0.119,0.018-0.239,0.018-0.357,0.018C21.318,12.09,19.036,12.09,16.752,12.088z"/>
	<path fill-rule="evenodd" clip-rule="evenodd" fill="#050505" d="M16.778,14.979c2.29,0,4.584-0.001,6.875,0.001
		c0.185,0,0.376-0.016,0.538,0.117c0.22,0.182,0.314,0.409,0.228,0.669c-0.076,0.234-0.252,0.375-0.507,0.404
		c-0.103,0.011-0.203,0.018-0.307,0.018c-4.541,0-9.082,0-13.623,0c-0.128,0-0.257,0-0.384-0.031
		c-0.304-0.072-0.486-0.297-0.475-0.598c0.011-0.285,0.232-0.529,0.522-0.565c0.11-0.013,0.223-0.014,0.333-0.014
		C12.246,14.977,14.511,14.977,16.778,14.979z"/>
	<path fill-rule="evenodd" clip-rule="evenodd" fill="#050505" d="M16.787,20.143c-2.284,0-4.568,0-6.851,0
		c-0.197,0-0.392,0.002-0.564-0.128c-0.21-0.153-0.279-0.355-0.238-0.597c0.038-0.229,0.192-0.366,0.407-0.445
		c0.129-0.046,0.268-0.046,0.405-0.046c4.567,0,9.133,0,13.701,0c0.526,0,0.813,0.229,0.794,0.641
		c-0.009,0.27-0.199,0.496-0.474,0.549c-0.116,0.024-0.239,0.026-0.358,0.026C21.334,20.143,19.061,20.143,16.787,20.143z"/>
	<path fill-rule="evenodd" clip-rule="evenodd" fill="#030303" d="M16.773,24.161c-2.293,0-4.585,0-6.878,0
		c-0.499,0-0.774-0.22-0.772-0.608c0.003-0.283,0.192-0.513,0.479-0.568c0.109-0.021,0.221-0.028,0.333-0.028
		c4.567,0,9.133,0,13.701,0c0.194,0,0.391,0,0.561,0.125c0.233,0.167,0.288,0.396,0.222,0.646c-0.057,0.226-0.219,0.375-0.464,0.41
		c-0.107,0.016-0.223,0.024-0.332,0.024C21.338,24.161,19.056,24.161,16.773,24.161z"/>
</g>
</svg>
