<?xml version="1.0" encoding="utf-8"?>
<!-- Generator: Adobe Illustrator 16.0.0, SVG Export Plug-In . SVG Version: 6.00 Build 0)  -->
<!DOCTYPE svg PUBLIC "-//W3C//DTD SVG 1.1//EN" "http://www.w3.org/Graphics/SVG/1.1/DTD/svg11.dtd">
<svg version="1.1" id="Layer_1" xmlns="http://www.w3.org/2000/svg" xmlns:xlink="http://www.w3.org/1999/xlink" x="0px" y="0px"
	 width="32px" height="32px" viewBox="0 0 32 32" enable-background="new 0 0 32 32" xml:space="preserve">
<g>
	<path fill="#FF8700" d="M21.702,19.699c-0.324,0.096-0.583,0.132-0.925,0.132c-2.786,0-6.876-9.736-6.876-12.977
		c0-1.192,0.283-1.591,0.681-1.932c-3.41,0.398-7.501,1.65-8.81,3.24C5.489,8.56,5.317,9.185,5.317,9.981
		c0,5.058,5.399,16.537,9.208,16.537C16.288,26.518,19.26,23.622,21.702,19.699"/>
	<path fill="#FF8700" d="M19.925,4.583c3.523,0,7.05,0.568,7.05,2.557c0,4.036-2.561,8.924-3.865,8.924
		c-2.332,0-5.229-6.48-5.229-9.722C17.879,4.866,18.448,4.583,19.925,4.583"/>
</g>
</svg>
