<?xml version="1.0" encoding="utf-8"?>
<!-- Generator: Adobe Illustrator 16.0.0, SVG Export Plug-In . SVG Version: 6.00 Build 0)  -->
<!DOCTYPE svg PUBLIC "-//W3C//DTD SVG 1.1//EN" "http://www.w3.org/Graphics/SVG/1.1/DTD/svg11.dtd">
<svg version="1.1" id="Layer_1" xmlns="http://www.w3.org/2000/svg" xmlns:xlink="http://www.w3.org/1999/xlink" x="0px" y="0px"
	 width="32px" height="32px" viewBox="0 0 32 32" enable-background="new 0 0 32 32" xml:space="preserve">
<g>
	<path fill-rule="evenodd" clip-rule="evenodd" fill="#020202" d="M4.561,5.12C3.677,5.118,2.793,5.116,1.909,5.115
		C1.87,5.035,1.823,5.021,1.765,5.097C1.225,4.931,0.988,4.543,1,4c0.011-0.512,0.26-0.868,0.769-1.015
		c0.115,0.135,0.214,0.117,0.298-0.033c2.179,0,4.358-0.001,6.538-0.002c0.048,0.089,0.099,0.096,0.154,0.007
		c0.294,0.141,0.158,0.41,0.16,0.616C8.93,5.389,8.93,7.204,8.923,9.02c-0.003,0.948-0.409,1.461-1.131,1.465
		C7.075,10.49,6.639,9.958,6.63,9.046C6.622,8.197,6.629,7.348,6.629,6.28c-1.346,1.534-2.182,3.108-2.667,4.862
		C2.346,16.971,4.936,23,10.235,25.803c5.238,2.77,11.669,1.585,15.519-3.029c3.313-3.971,4.037-8.517,1.932-13.238
		c-2.162-4.855-6.072-7.395-11.443-7.564c-0.989-0.032-1.966,0.07-2.933,0.28c-0.828,0.181-1.307-0.027-1.449-0.607
		c-0.153-0.63,0.197-1.058,1.033-1.26c7.784-1.881,15.944,3.366,17.501,11.256c1.645,8.338-3.873,16.167-12.266,17.407
		c-7.783,1.151-15.304-4.471-16.39-12.261C1.173,12.715,2.099,9.02,4.566,5.716c0.112-0.15,0.529-0.301,0.145-0.6
		C4.659,5.033,4.608,5.035,4.561,5.12z"/>
	<path fill-rule="evenodd" clip-rule="evenodd" fill="#020202" d="M18.553,11.782c0,1.477-0.012,2.955,0.008,4.432
		c0.008,0.411-0.102,0.654-0.492,0.848c-1.714,0.856-3.408,1.754-5.116,2.625c-0.71,0.363-1.359,0.188-1.665-0.416
		c-0.316-0.624-0.114-1.222,0.612-1.608c1.258-0.669,2.526-1.319,3.805-1.946c0.403-0.198,0.553-0.441,0.548-0.897
		c-0.022-2.462-0.01-4.925-0.012-7.387c0-0.423,0.031-0.834,0.333-1.165c0.334-0.368,0.766-0.445,1.211-0.294
		c0.525,0.179,0.764,0.599,0.764,1.144C18.557,8.671,18.553,10.227,18.553,11.782z"/>
	<path fill-rule="evenodd" clip-rule="evenodd" fill="#020202" d="M2.067,2.953C1.983,3.102,1.884,3.121,1.77,2.985
		C1.869,2.974,1.968,2.963,2.067,2.953z"/>
	<path fill-rule="evenodd" clip-rule="evenodd" fill="#020202" d="M8.759,2.958C8.704,3.046,8.653,3.039,8.605,2.95
		C8.657,2.953,8.708,2.955,8.759,2.958z"/>
	<path fill-rule="evenodd" clip-rule="evenodd" fill="#020202" d="M1.765,5.097C1.823,5.021,1.87,5.035,1.909,5.115L1.834,5.123
		L1.765,5.097z"/>
	<path fill-rule="evenodd" clip-rule="evenodd" fill="#020202" d="M4.561,5.12c0.048-0.084,0.098-0.087,0.15-0.003L4.636,5.134
		L4.561,5.12z"/>
</g>
</svg>
