<?xml version="1.0" encoding="utf-8"?>
<!-- Generator: Adobe Illustrator 16.0.0, SVG Export Plug-In . SVG Version: 6.00 Build 0)  -->
<!DOCTYPE svg PUBLIC "-//W3C//DTD SVG 1.1//EN" "http://www.w3.org/Graphics/SVG/1.1/DTD/svg11.dtd">
<svg version="1.1" id="Layer_1" xmlns="http://www.w3.org/2000/svg" xmlns:xlink="http://www.w3.org/1999/xlink" x="0px" y="0px"
	 width="32px" height="32px" viewBox="0 0 32 32" enable-background="new 0 0 32 32" xml:space="preserve">
<g>
	<path d="M22.797,4.583c1.318,0.513,1.654,1.014,1.654,2.473c0,2.909,0,5.818,0,8.727c0,0.167,0,0.335,0,0.549
		c-0.471-0.238-0.877-0.508-1.357-0.611c-0.285-0.06-0.217-0.296-0.219-0.49c0-2.503,0-5.006,0-7.509
		c0.002-1.794,0.111-1.507-1.512-1.511C17.102,6.2,12.838,6.207,8.576,6.207c-0.671,0-0.739,0.06-0.739,0.705
		c-0.001,5.717-0.001,11.434,0,17.148c0,0.623,0.09,0.709,0.703,0.711c4.736,0.002,9.471,0.004,14.207,0.004
		c0.328,0,0.629-0.053,0.894,0.277c0.354,0.447,0.354,0.736-0.146,1.074c-0.354,0.238-0.771,0.25-1.17,0.252
		c-4.634,0.008-9.268,0.006-13.902,0.004c-1.51,0-2.204-1.111-2.198-2.223c0.031-5.701,0.014-11.4,0.014-17.1
		c0-1.463,0.319-1.946,1.638-2.478C12.851,4.583,17.824,4.583,22.797,4.583z"/>
	<path d="M27.059,27.416c0.039-0.152-0.104-0.197-0.178-0.273c-1.168-1.176-2.344-2.344-3.51-3.521
		c-0.172-0.177-0.293-0.229-0.547-0.119c-2.389,1.041-4.941-0.539-5.09-3.135c-0.101-1.775,1.326-3.459,3.135-3.703
		c1.793-0.241,3.568,0.978,3.961,2.712c0.182,0.801,0.139,1.578-0.213,2.32c-0.125,0.262-0.078,0.406,0.121,0.604
		c1.17,1.148,2.316,2.322,3.49,3.469c0.242,0.236,0.227,0.357-0.008,0.572c-0.371,0.338-0.71,0.715-1.062,1.074
		C27.127,27.416,27.094,27.416,27.059,27.416z M21.338,22.355c1.213,0.002,2.17-0.939,2.162-2.125
		c-0.01-1.174-1.002-2.152-2.174-2.142c-1.152,0.011-2.113,0.972-2.127,2.132C19.184,21.426,20.113,22.354,21.338,22.355z"/>
	<path d="M14.372,14.26c1.554,0,3.106,0.011,4.662-0.009c0.358-0.005,0.446,0.103,0.442,0.451c-0.008,1.197,0.006,1.197-1.209,1.197
		c-2.837,0-5.675-0.009-8.512,0.01c-0.388,0.002-0.473-0.104-0.467-0.478c0.021-1.172,0.004-1.172,1.182-1.172
		C11.771,14.26,13.072,14.26,14.372,14.26z"/>
	<path d="M14.427,9.626c1.538,0,3.077,0.013,4.614-0.01c0.367-0.005,0.439,0.105,0.436,0.451c-0.014,1.195,0.002,1.196-1.209,1.196
		c-2.821,0-5.643-0.006-8.464,0.007c-0.367,0.001-0.527-0.048-0.516-0.481c0.031-1.162,0.006-1.163,1.187-1.163
		C11.791,9.626,13.109,9.626,14.427,9.626z"/>
</g>
</svg>
